<svg width="24" height="25" viewBox="0 0 24 25" fill="none" xmlns="http://www.w3.org/2000/svg">
<path d="M13.1209 6.43826C12.9335 6.62579 12.8282 6.8801 12.8282 7.14526C12.8282 7.41043 12.9335 7.66474 13.1209 7.85226L16.4129 11.1453L5.99994 11.1523C5.73472 11.1523 5.48037 11.2576 5.29283 11.4452C5.1053 11.6327 4.99994 11.887 4.99994 12.1523C4.99994 12.4175 5.1053 12.6718 5.29283 12.8594C5.48037 13.0469 5.73472 13.1523 5.99994 13.1523L16.4139 13.1453L13.1209 16.4383C13.0254 16.5305 12.9492 16.6409 12.8968 16.7629C12.8444 16.8849 12.8168 17.0161 12.8157 17.1489C12.8145 17.2816 12.8398 17.4133 12.8901 17.5362C12.9404 17.6591 13.0147 17.7708 13.1085 17.8647C13.2024 17.9586 13.3141 18.0328 13.437 18.0831C13.5599 18.1334 13.6916 18.1587 13.8243 18.1575C13.9571 18.1564 14.0883 18.1288 14.2103 18.0764C14.3323 18.024 14.4427 17.9478 14.5349 17.8523L18.1209 14.2673C18.3996 13.9887 18.6206 13.6579 18.7714 13.2939C18.9222 12.9299 18.9998 12.5398 18.9998 12.1458C18.9998 11.7518 18.9222 11.3616 18.7714 10.9976C18.6206 10.6336 18.3996 10.3028 18.1209 10.0243L14.5349 6.43826C14.3474 6.25079 14.0931 6.14548 13.8279 6.14548C13.5628 6.14548 13.3085 6.25079 13.1209 6.43826Z" fill="#3D3D3F"/>
</svg>
