<svg width="21" height="18" viewBox="0 0 21 18" fill="none" xmlns="http://www.w3.org/2000/svg">
<path d="M11.629 1.06117C11.3609 1.32936 11.2102 1.69305 11.2102 2.07226C11.2102 2.45147 11.3609 2.81516 11.629 3.08335L16.3369 7.7927L1.44515 7.80271C1.06586 7.80271 0.702107 7.95338 0.433909 8.22158C0.165712 8.48978 0.0150394 8.85353 0.0150394 9.23282C0.0150394 9.61211 0.165712 9.97586 0.433909 10.2441C0.702107 10.5123 1.06586 10.6629 1.44515 10.6629L16.3383 10.6529L11.629 15.3623C11.4924 15.4942 11.3834 15.652 11.3085 15.8265C11.2335 16.001 11.1941 16.1886 11.1924 16.3785C11.1908 16.5684 11.227 16.7567 11.2989 16.9325C11.3708 17.1082 11.477 17.2679 11.6112 17.4022C11.7455 17.5364 11.9052 17.6426 12.0809 17.7145C12.2567 17.7865 12.445 17.8226 12.6349 17.821C12.8248 17.8193 13.0125 17.7799 13.1869 17.7049C13.3614 17.63 13.5192 17.521 13.6511 17.3844L18.7795 12.2575C19.178 11.8591 19.4941 11.3861 19.7097 10.8655C19.9254 10.345 20.0364 9.787 20.0364 9.22352C20.0364 8.66005 19.9254 8.10209 19.7097 7.58152C19.4941 7.06094 19.178 6.58795 18.7795 6.18955L13.6511 1.06117C13.383 0.793069 13.0193 0.642456 12.64 0.642456C12.2608 0.642456 11.8971 0.793069 11.629 1.06117Z" fill="white"/>
</svg>
