<svg width="21" height="18" viewBox="0 0 21 18" fill="none" xmlns="http://www.w3.org/2000/svg">
<path d="M8.42271 1.00942C8.69081 1.2776 8.84143 1.64129 8.84143 2.0205C8.84143 2.39972 8.69081 2.7634 8.42271 3.03159L3.71479 7.74094L18.6065 7.75095C18.9858 7.75095 19.3496 7.90162 19.6178 8.16982C19.886 8.43802 20.0366 8.80177 20.0366 9.18106C20.0366 9.56035 19.886 9.9241 19.6178 10.1923C19.3496 10.4605 18.9858 10.6112 18.6065 10.6112L3.71336 10.6012L8.42271 15.3105C8.5593 15.4424 8.66825 15.6002 8.7432 15.7747C8.81815 15.9492 8.8576 16.1369 8.85925 16.3267C8.8609 16.5166 8.82472 16.705 8.75281 16.8807C8.6809 17.0565 8.57471 17.2161 8.44044 17.3504C8.30616 17.4847 8.14649 17.5909 7.97073 17.6628C7.79497 17.7347 7.60666 17.7709 7.41677 17.7692C7.22688 17.7676 7.03922 17.7281 6.86474 17.6532C6.69026 17.5782 6.53246 17.4693 6.40054 17.3327L1.27216 12.2057C0.87369 11.8073 0.5576 11.3343 0.341946 10.8138C0.126292 10.2932 0.0152974 9.73524 0.0152974 9.17177C0.0152974 8.60829 0.126292 8.05033 0.341946 7.52976C0.5576 7.00919 0.87369 6.53619 1.27216 6.13779L6.40054 1.00942C6.66872 0.741311 7.03241 0.590698 7.41162 0.590698C7.79084 0.590698 8.15453 0.741311 8.42271 1.00942Z" fill="#3D3D3F"/>
</svg>
