<svg width="40" height="41" viewBox="0 0 40 41" fill="none" xmlns="http://www.w3.org/2000/svg">
<path d="M37.0635 10.0042L39.0035 8.06445C39.3258 7.74188 39.432 7.26154 39.2755 6.83337C39.1189 6.40491 38.728 6.10645 38.2733 6.06799L34.6743 5.76434L34.3707 2.16541C34.3325 1.711 34.0338 1.32007 33.6056 1.16351C33.1774 1.00665 32.6971 1.11285 32.3745 1.43542L30.4345 3.37512C27.2973 1.4516 23.7103 0.438721 19.9999 0.438721C14.6578 0.438721 9.63525 2.5191 5.85779 6.29657C2.08032 10.074 -6.10352e-05 15.0966 -6.10352e-05 20.4387C-6.10352e-05 25.7808 2.08032 30.8034 5.85779 34.5809C9.63525 38.3583 14.6578 40.4387 19.9999 40.4387C25.342 40.4387 30.3646 38.3583 34.1421 34.5809C37.9196 30.8034 39.9999 25.7808 39.9999 20.4387C39.9999 16.7284 38.9871 13.1417 37.0635 10.0042ZM32.4218 6.94751C32.47 7.51697 32.9217 7.96863 33.4911 8.01685L35.5618 8.19141L32.759 10.9941L29.7024 10.7363L29.4445 7.67963L32.2473 4.87689L32.4218 6.94751ZM23.9843 20.4387C23.9843 22.6357 22.1969 24.4231 19.9999 24.4231C17.803 24.4231 16.0156 22.6357 16.0156 20.4387C16.0156 18.2418 17.803 16.4543 19.9999 16.4543C20.6729 16.4543 21.3067 16.6225 21.863 16.9182L19.1714 19.6102C18.7136 20.0676 18.7136 20.8095 19.1714 21.2673C19.4 21.4962 19.7 21.6106 19.9999 21.6106C20.2999 21.6106 20.5999 21.4962 20.8285 21.2673L23.5204 18.5756C23.8162 19.132 23.9843 19.7658 23.9843 20.4387ZM23.5665 15.2147C22.5503 14.5189 21.322 14.1106 19.9999 14.1106C16.5106 14.1106 13.6718 16.9493 13.6718 20.4387C13.6718 23.9281 16.5106 26.7668 19.9999 26.7668C23.4893 26.7668 26.3281 23.9281 26.3281 20.4387C26.3281 19.1167 25.9197 17.8884 25.2239 16.8721L28.5699 13.5262C30.0985 15.4177 31.0156 17.8231 31.0156 20.4387C31.0156 26.5126 26.0739 31.4543 19.9999 31.4543C13.926 31.4543 8.98431 26.5126 8.98431 20.4387C8.98431 14.3648 13.926 9.4231 19.9999 9.4231C22.6156 9.4231 25.021 10.3401 26.9125 11.8688L23.5665 15.2147ZM32.4847 32.9235C29.15 36.2584 24.7161 38.095 19.9999 38.095C15.2838 38.095 10.8499 36.2584 7.5152 32.9235C4.18024 29.5888 2.34369 25.1549 2.34369 20.4387C2.34369 15.7225 4.18024 11.2886 7.5152 7.95398C10.8499 4.61902 15.2838 2.78247 19.9999 2.78247C23.0853 2.78247 26.0739 3.57501 28.7243 5.08533L27.4026 6.40704C27.189 6.62067 27.0672 6.90692 27.0596 7.20569C27.0587 7.24841 27.0599 7.29114 27.0632 7.33417L27.221 9.20398C25.1376 7.85999 22.6583 7.07935 19.9999 7.07935C12.6336 7.07935 6.64056 13.0724 6.64056 20.4387C6.64056 27.8051 12.6336 33.7981 19.9999 33.7981C27.3663 33.7981 33.3593 27.8051 33.3593 20.4387C33.3593 17.7803 32.5787 15.3011 31.2347 13.2177L33.1045 13.3754C33.1375 13.3779 33.1704 13.3794 33.2031 13.3794C33.2086 13.3794 33.2144 13.3788 33.2198 13.3785C33.2354 13.3785 33.2507 13.3773 33.2662 13.3763C33.2916 13.3748 33.3172 13.3733 33.3422 13.3702C33.3578 13.3681 33.3734 13.3657 33.3889 13.3632C33.4136 13.3593 33.438 13.3547 33.4625 13.3492C33.478 13.3455 33.4933 13.3416 33.5085 13.3376C33.5323 13.3312 33.5558 13.3239 33.5793 13.3159C33.5946 13.3107 33.6096 13.3055 33.6245 13.2997C33.6474 13.2909 33.67 13.2811 33.6926 13.2704C33.7069 13.264 33.7213 13.2576 33.7356 13.2503C33.7582 13.2387 33.7802 13.2259 33.8018 13.2131C33.8149 13.2051 33.8281 13.1978 33.8409 13.1899C33.8641 13.1746 33.8864 13.1581 33.9086 13.1414C33.919 13.1334 33.9297 13.1264 33.9398 13.1182C33.9715 13.0925 34.0023 13.0654 34.0316 13.0361L35.3533 11.7144C36.8636 14.3648 37.6562 17.3534 37.6562 20.4387C37.6562 25.1549 35.8196 29.5888 32.4847 32.9235Z" fill="#34D27B"/>
</svg>
