<svg width="16" height="14" viewBox="0 0 16 14" fill="none" xmlns="http://www.w3.org/2000/svg">
<path d="M11.2227 0.199219C9.80781 0.199219 8.72264 0.994613 8.00003 2.17827C7.2773 0.994398 6.19203 0.199219 4.77737 0.199219C3.6812 0.199219 2.68101 0.661907 1.96116 1.50203C1.28346 2.29304 0.910187 3.34939 0.910187 4.47654C0.910187 5.70214 1.36987 6.83518 2.35677 8.04235C3.22208 9.10075 4.4643 10.1895 5.90273 11.4503C6.43451 11.9165 6.98442 12.3984 7.56884 12.9244C7.69143 13.0347 7.84573 13.0898 8.00003 13.0898C8.15433 13.0898 8.30863 13.0347 8.43122 12.9244C9.01564 12.3984 9.56551 11.9164 10.0973 11.4503C11.5358 10.1895 12.778 9.10071 13.6433 8.0423C14.6302 6.83523 15.0899 5.70214 15.0899 4.47654C15.0899 2.17183 13.5109 0.199219 11.2227 0.199219Z" fill="url(#paint0_linear_2_164)"/>
<defs>
<linearGradient id="paint0_linear_2_164" x1="8.00003" y1="13.0898" x2="8.00003" y2="0.199219" gradientUnits="userSpaceOnUse">
<stop stop-color="#FFC2CC"/>
<stop offset="1" stop-color="#FFF2F4"/>
</linearGradient>
</defs>
</svg>
