<svg width="35" height="35" viewBox="0 0 35 35" fill="none" xmlns="http://www.w3.org/2000/svg">
<path d="M32.2142 25.1472H28.4317C26.8572 25.0477 25.3653 24.4117 24.2079 23.3465L23.7824 22.9238C22.7332 21.765 22.1156 20.2837 22.033 18.7273V14.9693C22.0288 14.3186 21.7668 13.6957 21.3037 13.2355C20.8405 12.7753 20.2135 12.515 19.5586 12.511H15.7761C14.2145 12.4456 12.7231 11.8485 11.5523 10.8199L11.1268 10.3971C10.0775 9.23837 9.46007 7.75713 9.37735 6.20065V2.45839C9.37735 1.80638 9.11664 1.18106 8.65266 0.720002C8.18862 0.259011 7.55926 0 6.90299 0H2.47429C1.81809 0 1.18867 0.259011 0.724694 0.720002C0.260647 1.18106 -6.10352e-05 1.80638 -6.10352e-05 2.45839V6.85832C-6.10352e-05 7.51032 0.260647 8.13564 0.724694 8.59663C1.18867 9.05769 1.81809 9.3167 2.47429 9.3167H6.24106C7.83158 9.38897 9.34725 10.009 10.5279 11.0704L10.9534 11.4932C11.9994 12.654 12.6163 14.134 12.7028 15.6895V19.4476C12.7069 20.0983 12.969 20.7212 13.4321 21.1813C13.8952 21.6415 14.5222 21.9018 15.1772 21.9059H18.9597C20.509 22.0023 21.9803 22.6145 23.1362 23.644L23.5617 24.0668C24.6077 25.2275 25.2246 26.7076 25.3111 28.2632V32.0212C25.3152 32.6719 25.5773 33.2948 26.0404 33.7549C26.5035 34.2151 27.1306 34.4754 27.7855 34.4795H32.2299C32.8849 34.4754 33.5119 34.2151 33.975 33.7549C34.4382 33.2948 34.7002 32.6719 34.7043 32.0212V27.6055C34.7001 26.9521 34.436 26.3268 33.9694 25.8662C33.5029 25.4057 32.8719 25.1471 32.2142 25.1472Z" fill="#FD695A"/>
</svg>
