<svg width="16" height="16" viewBox="0 0 16 16" fill="none" xmlns="http://www.w3.org/2000/svg">
<path d="M4.71874 4.25C4.71874 3.47335 4.08914 2.84375 3.31249 2.84375C2.53584 2.84375 1.90624 3.47335 1.90624 4.25C1.90624 5.02665 2.53584 5.65625 3.31249 5.65625C4.08914 5.65625 4.71874 5.02665 4.71874 4.25Z" stroke="white" stroke-linecap="round" stroke-linejoin="round"/>
<path d="M3.78124 14.0938H1.90624V11.2812H0.968742V8.46875C0.968742 8.22011 1.06751 7.98165 1.24333 7.80584C1.41915 7.63002 1.6576 7.53125 1.90624 7.53125H2.84374" stroke="white" stroke-linecap="round" stroke-linejoin="round"/>
<path d="M11.2812 4.25C11.2812 5.02665 11.9108 5.65625 12.6875 5.65625C13.4641 5.65625 14.0937 5.02665 14.0937 4.25C14.0937 3.47335 13.4641 2.84375 12.6875 2.84375C11.9108 2.84375 11.2812 3.47335 11.2812 4.25Z" stroke="white" stroke-linecap="round" stroke-linejoin="round"/>
<path d="M12.2187 14.0938H14.0937V11.2812H15.0312V8.46875C15.0312 8.22011 14.9325 7.98165 14.7567 7.80584C14.5808 7.63002 14.3424 7.53125 14.0937 7.53125H13.1562" stroke="white" stroke-linecap="round" stroke-linejoin="round"/>
<path d="M9.87499 2.84375C9.87499 1.80822 9.03553 0.96875 7.99999 0.96875C6.96446 0.96875 6.12499 1.80822 6.12499 2.84375C6.12499 3.87928 6.96446 4.71875 7.99999 4.71875C9.03553 4.71875 9.87499 3.87928 9.87499 2.84375Z" stroke="white" stroke-linecap="round" stroke-linejoin="round"/>
<path d="M10.3438 15.0312H5.65625V11.2812H4.71875V8.46875C4.71875 7.97147 4.91629 7.49456 5.26792 7.14292C5.61956 6.79129 6.09647 6.59375 6.59375 6.59375H9.40625C9.90353 6.59375 10.3804 6.79129 10.7321 7.14292C11.0837 7.49456 11.2813 7.97147 11.2813 8.46875V11.2812H10.3438V15.0312Z" stroke="white" stroke-linecap="round" stroke-linejoin="round"/>
</svg>
