<svg width="38" height="39" viewBox="0 0 38 39" fill="none" xmlns="http://www.w3.org/2000/svg">
<g clip-path="url(#clip0_2_267)">
<path d="M36.8864 38.9312H1.11321C0.498388 38.9312 -6.10352e-05 38.4328 -6.10352e-05 37.818C-6.10352e-05 37.2032 0.498388 36.7047 1.11321 36.7047H36.8864C37.5012 36.7047 37.9996 37.2032 37.9996 37.818C37.9996 38.4328 37.5012 38.9312 36.8864 38.9312Z" fill="#7879F1"/>
<path d="M7.86687 38.9313H3.41378C2.79896 38.9313 2.30051 38.4329 2.30051 37.818V29.654C2.30051 28.6309 3.13286 27.7986 4.15596 27.7986H7.12469C8.14779 27.7986 8.98014 28.6309 8.98014 29.654V37.818C8.98014 38.4329 8.48169 38.9313 7.86687 38.9313ZM4.52705 36.7048H6.7536V30.0251H4.52705V36.7048ZM7.12469 30.0251H7.12543H7.12469Z" fill="#7879F1"/>
<path d="M16.7731 38.9313H12.32C11.7051 38.9313 11.2067 38.4328 11.2067 37.818V26.9822C11.2067 25.9591 12.0391 25.1267 13.0622 25.1267H16.0309C17.054 25.1267 17.8863 25.9591 17.8863 26.9822V37.818C17.8863 38.4328 17.3879 38.9313 16.7731 38.9313ZM13.4332 36.7047H15.6598V27.3533H13.4332V36.7047ZM16.0309 27.3533H16.0316H16.0309Z" fill="#7879F1"/>
<path d="M25.6792 38.9313H21.2262C20.6113 38.9313 20.1129 38.4328 20.1129 37.818V22.9001C20.1129 21.877 20.9452 21.0447 21.9683 21.0447H24.9371C25.9602 21.0447 26.7925 21.877 26.7925 22.9001V37.818C26.7925 38.4328 26.2941 38.9313 25.6792 38.9313ZM22.3394 36.7047H24.566V23.2712H22.3394V36.7047ZM24.9371 23.2712H24.9378H24.9371Z" fill="#7879F1"/>
<path d="M34.5854 38.9313H30.1323C29.5175 38.9313 29.0191 38.4329 29.0191 37.8181V15.4784C29.0191 14.4553 29.8514 13.6229 30.8745 13.6229H33.8433C34.8664 13.6229 35.6987 14.4553 35.6987 15.4784V37.8181C35.6987 38.4329 35.2003 38.9313 34.5854 38.9313ZM31.2456 36.7048H33.4722V15.8495H31.2456V36.7048ZM33.8433 15.8495H33.844H33.8433Z" fill="#7879F1"/>
<path d="M1.11321 24.8527C0.498388 24.8527 -6.10352e-05 24.3543 -6.10352e-05 23.7395C-6.10352e-05 23.1246 0.498388 22.6262 1.11321 22.6262C7.6597 22.6262 14.7875 20.2423 21.1834 15.9137C27.0675 11.9315 31.7561 6.711 34.0471 1.59076C34.2982 1.02953 34.9568 0.778075 35.5179 1.0293C36.0792 1.28038 36.3306 1.93892 36.0794 2.50016C33.6238 7.98837 28.6493 13.5495 22.4313 17.7576C15.6709 22.333 8.09989 24.8527 1.11321 24.8527Z" fill="#7879F1"/>
<path d="M36.8854 9.96193C36.3938 9.96193 35.944 9.63388 35.8108 9.13647L34.2759 3.40824L28.5477 4.94315C27.9536 5.10242 27.3433 4.74988 27.1842 4.15599C27.0251 3.56209 27.3775 2.95165 27.9714 2.79253L34.775 0.969505C35.3691 0.810307 35.9793 1.16284 36.1384 1.75666L37.9614 8.56024C38.1206 9.15414 37.7682 9.76458 37.1743 9.9237C37.0777 9.94953 36.9808 9.96193 36.8854 9.96193Z" fill="#7879F1"/>
</g>
<defs>
<clipPath id="clip0_2_267">
<rect width="38" height="38" fill="white" transform="translate(-6.10352e-05 0.931274)"/>
</clipPath>
</defs>
</svg>
