<svg width="42" height="42" viewBox="0 0 42 42" fill="none" xmlns="http://www.w3.org/2000/svg">
<path d="M40.9413 21.0181C40.9404 20.6124 40.7297 20.236 40.3843 20.0231L36.3192 17.5171L40.3886 14.9842C40.7318 14.7707 40.9406 14.3953 40.9413 13.9911C40.9419 13.5869 40.7342 13.2109 40.3916 12.9963L21.5635 1.19946C21.183 0.961021 20.6996 0.961021 20.3191 1.19946L1.49103 12.9963C1.14853 13.2109 0.940799 13.5869 0.941346 13.9911C0.941971 14.3953 1.1508 14.7707 1.494 14.9842L5.53555 17.4997L1.4922 20.027C1.14924 20.2413 0.941034 20.6173 0.941424 21.0218C0.941815 21.4263 1.15072 21.8019 1.49408 22.0156L5.53563 24.5311L1.4922 27.0582C1.14978 27.2722 0.941659 27.6475 0.941424 28.0513C0.94119 28.4551 1.14892 28.8306 1.49111 29.045L20.3192 40.8418C20.5095 40.961 20.7254 41.0206 20.9413 41.0206C21.1573 41.0206 21.3733 40.961 21.5635 40.8418L40.3916 29.045C40.7349 28.8299 40.9428 28.4527 40.9413 28.0476C40.9398 27.6426 40.7292 27.2669 40.3843 27.0544L36.3192 24.5484L40.3886 22.0155C40.7331 21.8012 40.9421 21.4238 40.9413 21.0181ZM4.32571 13.9862L20.9413 3.57554L37.557 13.9862C37.3973 14.0856 21.4175 24.0315 20.9413 24.3279L4.32571 13.9862ZM37.5493 28.0601L20.9413 38.4659L4.32243 28.0532L7.75124 25.9101L20.3221 33.7343C20.5117 33.8523 20.7265 33.9113 20.9413 33.9113C21.1562 33.9113 21.371 33.8523 21.5606 33.7343L34.0968 25.9317L37.5493 28.0601ZM20.9413 31.3591L4.32766 21.0187L7.75124 18.8789L20.3221 26.7031C20.5117 26.8211 20.7265 26.8801 20.9413 26.8801C21.1562 26.8801 21.371 26.8211 21.5606 26.7031L34.0968 18.9005L37.544 21.0255C37.4488 21.0848 21.3812 31.0853 20.9413 31.3591Z" fill="#FD695A" stroke="#FD695A" stroke-width="0.5"/>
</svg>
